PathFileType	4	(X/Y/Z)	Patient5_TMGait_0pt45_1_left_14.trc.trc
DataRate	CameraRate	NumFrames	NumMarkers	Units	OrigDataRate	OrigDataStartFrame	OrigNumFrames
62.500000000000	62.500000000000	6	32	mm	62.500000000000	71	       141
Frame#	Time	R.ASIS			L.ASIS			Chest			R.Shoulder			Neck			L.Shoulder			L.Elbow			L.Wrist			R.Elbow			R.Wrist			L.Thigh.Superior			L.Thigh.Lateral			L.Thigh.Inferior			L.Patella			L.Shank.Superior			L.Shank.Lateral			L.Shank.Inferior			L.Heel			L.Midfoot.Lateral			L.Midfoot.Superior			L.Toe			R.Thigh.Superior			R.Thigh.Lateral			R.Thigh.Inferior			R.Patella			R.Shank.Superior			R.Shank.Lateral			R.Shank.Inferior			R.Heel			R.Midfoot.Lateral			R.Midfoot.Superior			R.Toe			
		X1	Y1	Z1	X2	Y2	Z2	X3	Y3	Z3	X4	Y4	Z4	X5	Y5	Z5	X6	Y6	Z6	X7	Y7	Z7	X8	Y8	Z8	X9	Y9	Z9	X10	Y10	Z10	X11	Y11	Z11	X12	Y12	Z12	X13	Y13	Z13	X14	Y14	Z14	X15	Y15	Z15	X16	Y16	Z16	X17	Y17	Z17	X18	Y18	Z18	X19	Y19	Z19	X20	Y20	Z20	X21	Y21	Z21	X22	Y22	Z22	X23	Y23	Z23	X24	Y24	Z24	X25	Y25	Z25	X26	Y26	Z26	X27	Y27	Z27	X28	Y28	Z28	X29	Y29	Z29	X30	Y30	Z30	X31	Y31	Z31	X32	Y32	Z32	

71	23.080000000000	1034.422673568814	1014.470527645826	546.823531534039	1040.580424175466	961.613822120679	299.381174536551	1115.622049339406	1438.413052921411	440.920549885640	984.564954899071	1508.312414385824	581.217648171146	1006.119972721306	1568.724648871449	398.719189453891	1111.488949099750	1509.671605904960	240.546497019592	1104.025374604100	1189.496383998721	99.411417736918	1230.062336831721	935.340324562476	160.853647261939	861.506725021914	1193.230232886848	700.935565402814	1086.339698720576	1011.145565403955	672.757293853096	1036.053136951135	734.757574342405	307.039496791409	955.796817535001	671.511787035797	265.475718453924	1013.312151943906	608.061037680770	335.298287642840	997.611448621952	495.785239630341	345.737099529578	941.174131101709	398.888635033405	367.234672180593	874.585777438728	332.717643119087	287.006497261682	896.464385380683	279.856668645278	378.274805802007	743.518275597935	53.455950428317	376.801358644008	834.901098906709	28.926228513576	321.760996257308	929.614651923278	88.275644588244	370.650196284756	1036.547248544063	43.909690989535	380.335907683411	1095.972503614061	813.785758205971	578.179962563578	1041.966381061020	726.279461702814	649.730124676779	1139.006827129371	692.869213541960	585.450220820095	1171.925986151445	599.799077546405	632.186930268728	1135.803890633559	485.922475442843	601.063676609441	1058.466126899939	420.248534075926	680.258517568735	1120.020650714413	346.523268912297	606.754474863182	1003.409798669395	123.797365196349	580.243615092537	1077.190337849756	85.560857174898	654.840416269161	1184.642372670663	150.757782740962	647.540801741764	1286.875738187234	105.349284321743	649.056148739999	
72	23.096000000000	1034.303789199177	1013.249004787727	547.040983985721	1039.011501236835	961.488646616199	299.304282413792	1113.069087009451	1438.551844123169	441.528059377932	982.765148903058	1507.552091711147	583.187623553186	1002.612875489798	1568.376454062641	400.601441543073	1106.767614367898	1510.096748350265	241.299331763524	1099.579848164688	1189.621486228800	100.580020389369	1226.226184815563	935.810846868323	162.295398146847	860.393449840735	1192.434589669679	703.471674771075	1085.204450510770	1010.345837912893	674.980567524816	1033.813788123923	734.206099973371	306.908140291774	952.612538193143	671.241923894278	265.919047199681	1010.085839102671	607.487645081928	335.212250657264	993.461641538157	495.089623688123	345.615501673094	936.311231024186	398.590011541205	367.434440293301	868.975896401534	332.982953434809	287.455612391056	890.862299174814	279.874686983335	378.521554486610	736.438934903734	54.060411956526	377.091667716894	827.705757989116	29.340672985147	321.980012364238	922.518753320714	88.419092367381	370.716991775963	1029.338727598973	43.892446790561	380.301323607131	1099.114346435418	813.003797832460	576.964307078280	1046.674401436258	725.100471750519	649.080474992457	1142.616028030812	692.294422500259	582.958587323228	1176.814093049839	599.313790406260	629.058864243170	1140.307318405914	485.123689730816	598.440835552726	1064.727228194971	419.188731487147	678.930658391772	1124.970043374529	345.725582974506	604.110995014440	1008.200764567834	122.823866824355	579.380265345577	1083.583709878793	84.633686770264	652.442497018759	1190.694844403610	150.187238434220	643.158129915911	1293.118346418715	105.091268293851	642.560137336878	
73	23.112000000000	1034.215729997213	1011.799947882393	546.957171934738	1037.566451789621	961.339748007695	299.343218697021	1110.639430371957	1438.682502332423	442.213324373092	981.259181421826	1506.709532222354	585.355340463143	999.189815879550	1567.987036385129	402.667024489132	1101.939169398294	1510.541163337198	242.126254997663	1094.781719451351	1189.808068892302	101.712584959313	1222.141943393729	936.372959428042	163.559129924123	859.754596821661	1191.571199900335	706.416111626733	1084.169947561880	1009.090009325555	677.154225281727	1031.777691674212	733.777811817356	306.907905412899	949.629927721420	671.057078171265	266.439274804649	1007.115022819027	607.031998764244	335.174580970366	989.503773371152	494.376199111617	345.522082884333	931.612485318774	398.316292786441	367.635527046957	863.480886725723	333.314786054826	287.908599574384	885.383891163144	279.935079384940	378.776555977009	729.388015769223	54.769039622368	377.401639183942	820.529229804632	29.835551370136	322.189547738266	915.472606285622	88.557559638820	370.780995837798	1022.128990491540	43.875438552233	380.264847903471	1101.691377332555	811.611155035284	575.911085694216	1050.452369110463	723.370905451533	648.320040063615	1145.269382348666	690.926381959436	580.484529077054	1180.382162519472	597.981855040616	625.888378607631	1143.651182883986	483.656825878639	595.760641967612	1069.792559546472	417.409985519710	677.387328803273	1128.962594612530	344.259851865759	601.468869260528	1012.511523895217	120.983535718805	578.363363819023	1089.285382577778	83.037188847549	650.129437332111	1195.965099138265	149.054753976257	639.117404783630	1298.596391520690	104.389729128783	636.784845974366	
74	23.128000000000	1034.201284846536	1010.145745992281	546.630097062971	1036.258324584031	961.171158073589	299.527296016316	1108.344312025090	1438.800665552315	442.986934740408	980.052965213459	1505.801554838863	587.711716965338	995.870350893701	1567.557438304000	404.911556638171	1097.036715070483	1510.984348776072	243.040478208374	1089.673217406756	1190.041253123823	102.822391406280	1217.813842897059	936.977633372598	164.604998799293	859.616086438283	1190.657011168320	709.760809675346	1083.293953099143	1007.457591562049	679.212084322609	1029.910649534314	733.432446626577	307.061154884860	946.848773088048	670.962929188356	267.029420696067	1004.355076836603	606.676703839214	335.220788839422	985.674247540457	493.667268237925	345.483015389265	927.042388912381	398.073117399046	367.844450734079	858.080302464624	333.707880798172	288.370109469885	879.991872733684	280.037587984916	379.040062805097	722.363346980417	55.587335742908	377.717601765748	813.369758777178	30.407044911002	322.386987332546	908.474552805021	88.688058142232	370.839858105324	1014.913807739091	43.859647497988	380.226299946516	1103.689638970958	809.610762700995	574.935011987673	1053.271505242627	721.086686478313	647.465451602655	1146.971190216852	688.777413583323	578.072366886019	1182.619268935821	595.822161417336	622.743736380052	1145.862567555402	481.541017663153	593.059670903843	1073.657733074750	414.901846123511	675.647682881047	1132.037053603405	342.135120998764	598.838515628780	1016.414563221522	118.277447968311	577.117995250217	1094.361824309244	80.755550364646	647.844908730344	1200.517692279778	147.370893766321	635.413048950377	1303.388206929023	103.273493361413	631.731722377242	
75	23.144000000000	1034.317613555308	1008.318080012530	546.154647844106	1035.096297259192	960.977437690194	299.878655755780	1106.195644369393	1438.900667522923	443.860773108191	979.144506537747	1504.841224069497	590.247707836651	992.671865652574	1567.086071881676	407.332025485945	1092.096380499575	1511.408509699689	244.059231464442	1084.308199382017	1190.309242040322	103.927034231215	1213.245247611082	937.572629860515	165.403642769997	859.981179580571	1189.704424730343	713.479854292610	1082.636352008451	1005.552833778428	681.106350549450	1028.174358041207	733.126539993813	307.375728969931	944.262109781316	670.956993966968	267.675795688387	1001.749306324471	606.390627778216	335.374847606647	981.915431159533	492.987199030934	345.517741133888	922.561239274330	397.862887264047	368.070701396605	852.754343438379	334.154630638753	288.846365203864	874.652719585063	280.181613646668	379.315914943728	715.363113307740	56.516456541404	378.028461352386	806.225003382993	31.049685548039	322.571986791994	901.520276249311	88.811295738195	370.891473025107	1007.689588240743	43.846763579692	380.184715316236	1105.108128717186	807.020045263469	574.007053256128	1055.132753032409	718.267128106378	646.547786822890	1147.743979661797	685.879817086033	575.765338757267	1183.541566536833	592.875204266978	619.691223682857	1146.978835001777	478.815577905058	590.377060509888	1076.334504399295	411.685691759987	673.745216178034	1134.228700382193	339.383511897057	596.233666778973	1019.934253157144	114.754293304922	575.598730228688	1098.861417562418	77.784286114885	645.517752044930	1204.403110413012	145.149722710531	632.001152047354	1307.555069319217	101.767710204661	627.305775592011	
76	23.160000000000	1034.634568469972	1006.354124116146	545.659095644239	1034.087908504802	960.744859972627	300.412191310791	1104.206824619691	1438.974089550061	444.848058605553	978.524902609794	1503.836568298654	592.952958966521	989.611150443514	1566.566732345674	409.924989591815	1087.159695739610	1511.795384449266	245.202657525128	1078.744383236817	1190.600671127482	105.044138181719	1208.440149692314	938.106677915084	165.935966698579	860.834667116384	1188.718863694772	717.530978526731	1082.256235595287	1003.490317585363	682.810209403774	1026.535719288418	732.820008221990	307.847878520063	941.857604619585	671.026373740129	268.365268692995	999.243858225510	606.135008149314	335.648662281559	978.188437829014	492.352268250679	345.638660792195	918.134120316856	397.683712152554	368.325199112878	847.488274011420	334.646343784697	289.343838589329	869.342198882357	280.365015595864	379.610316890731	708.385929232863	57.552152543917	378.327333182717	799.092406869482	31.756359564809	322.746583469117	894.603503868320	88.930095812762	370.934997303962	1000.454701466734	43.838792404760	380.138103118931	1105.958392659454	803.867681142982	573.165306914659	1056.059115302306	714.947123648564	645.608325722626	1147.623904269031	682.279695611254	573.604781479479	1183.188188605536	589.194843772546	616.788618237068	1147.042279135878	475.532247304578	587.750094397527	1077.842324960423	407.809225883579	671.716428692271	1135.564868182323	336.054456955430	593.668886250134	1023.049409506523	110.502009599954	573.780960892157	1102.799199923957	74.133301486943	643.071503980150	1207.645877271828	142.404837930509	628.820815864270	1311.125650741867	99.883797956991	623.363203236044	
